<svg id="fc2a1af8-391e-4eb7-85b3-bea33cb84a7a" data-name="Layer 1" xmlns="http://www.w3.org/2000/svg" viewBox="0 0 588 372"><defs><style>.bef3b53a-27fb-47fd-9c0f-726ec72ac7a6{fill:none;}.fefa61f4-e2be-4ba1-bb0c-9213ea406e15{fill:#fff;}</style></defs><rect class="bef3b53a-27fb-47fd-9c0f-726ec72ac7a6" x="266.25" y="-390.01" width="704" height="408"/><path id="fb8593d9-7687-47e5-9290-a29bfc62ca66" data-name="fullLogo" class="fefa61f4-e2be-4ba1-bb0c-9213ea406e15" d="M49.27,275.81c2.81-2.13,11.92-12,15.84-16.24.27-.29.71-.81,1-.86s1,.57,1,.57,9.55,6.46,9.8,6.9.61,23.9.61,23.9-30.42-.37-30.79-.83,1.2-12.25,2.7-13.45m-6.32,17c.59.47,38,1,38,1s-.35-29.38-.54-29.65a144.37,144.37,0,0,0-14.7-9.55,1.49,1.49,0,0,0-1.44.56c-3.92,4.24-14.69,15.7-17.34,17.73-3.87,2.91-4.7,19.59-4.11,19.89M317.29,73.17l5.24.45V61.37l-5.24-.17Zm11.29,41.37,4.38.76v-9.8l-4.38-.47Zm10.94-17.9,6.74.71V82.46l-6.74-.25Zm24.93,3.08.18-15.4-3,.57-.17,15.87Zm16.7-15.47h4.46V73h-4.46Zm4.9,20h5.34V95.51h-5.51Zm51.16.61h-3.33v7.52h3.33Zm-10.82-7.34h-3.16v6.16h3.06Zm30.29,8h4.26v-4.16h-4.26Zm42.47-4.16h-3.21v4.9h3.21ZM546,318.56,530.25,323l-32.65,2-25.66-5.95-5.12-16.82,16.95-57.7v-.2a141.38,141.38,0,0,0,1.19-18c5.1,8.57,14.48,24.25,19.16,31.55,6.85,10.7,32.22,21,33.3,21.47,0,0,4.73,16.73,4.75,16.78ZM536.37,275c-6.51-2.87-24.07-11.15-29.14-19-6.12-9.55-20.4-33.63-22.34-36.91a62.4,62.4,0,0,0-3-18.34c-4.22-10.92-18.42-28.14-20.7-30.88l-8.18-38,30.47,3.31,13.1.2a46.44,46.44,0,0,1,17.73-1.89l6.85,18.89,3.9,36-2.94,21.09v.24a17.34,17.34,0,0,1-.12,3.06,35.81,35.81,0,0,0,.78,12.25A30.73,30.73,0,0,0,525,231c1.42,3,2.77,5.93,2.77,16.14s.46,11.46,2.45,14.4a33.34,33.34,0,0,1,3.82,7.17c.83,2,1.61,4.09,2.45,6.22M513.23,129.58a45.61,45.61,0,0,0-16.78,2l-12.56-.2s-33.43-3.5-33.73-3.48l-32.69,8L410.13,139l-23.88,5.27-21.92,3.23-40-3.26a1.83,1.83,0,0,0-1.27.4l-4.9,3.86L283.22,147l-7.74-9L241,143.26V133.13H226.82v5.63L201.57,142c-.14,0-13.74-.46-18.59,0-1.76.17-5.63.88-10.09,1.72-4.9.93-12.24,2.3-16.31,2.71a2.84,2.84,0,0,0,0-2c-.88-2.45-4.9-2.69-4.9-2.69h-6c-5,0-12.64-.15-21.28-.15a88.65,88.65,0,0,1-18.37-2c6.08-3.16,13.1-6,19.45-8.5l6.2-2.45c2.62-1.1,6-2.74,9.21-4.33,4.58-2.23,10.85-5.32,12.39-5.32H302.49v10.63L356,142.5l13.42-8.15,34.87,1.42,9.8-15.85,90.24-1a55.58,55.58,0,0,1,8.6,10.85M502.06,115.3h-8.79v-4.68h-2.45v4.68H480.36v-5.1h-3.8v5.24l-10.48.13v-5.12h-2.62v5.14H455v-5.14h-2.37v5.26H448V98.57l28.29-.27h26Zm-.17-20.53h-21.6l1.5-3.47h6.36V85.73h8.48V81.6H502ZM444.05,116l-29.88.32V97.18l13.08-14.57-.15-3.8h4.29V82.7L444,96.85Zm-30-62.87-3.35,5.22v60.22l-5.49,8.84V58.28l1.42-5.55H414Zm-11.17-.27-1.32,4.9v74.13L371,130.63V55.86l2.45-3.13Zm-2.79-3.65H388.33V36.93H400ZM384.73,33.6V49.17h-5.34V33.5Zm-9,15.57H372l-2.84-3.86-.74-1.3h3.36V40.7h4.09Zm-6.9,3.65-1.44,1.94v76.43l-9.67,5.9-.2-80.2,2.18-4.19Zm-1.34-3.65H352.43V42.63H350V38.52L352,33.18h3l1.81,4.48,4.9,2L366,47Zm-11.9,3.65-1.72,3.29.2,82.13-20.84-5v-9.8l-5.16-.93v9.33l-21.84-5.27V57.72l-1.71-4.9Zm-6.84-3.65H333.72l.17-17h5.31v4.9h3.73V42h3.33v4.22h2.45Zm-46.13,63.31a28.13,28.13,0,0,0-19.2-8.23,43.27,43.27,0,0,0-8.28.44V104L282,92.84V88.73h1.81v4.33l11.44,14.08,7.34-.14Zm-1.28-9.28h-4.48l-9.28-10.51h5.31Zm-18.12,4.7a24.71,24.71,0,0,1,16.9,7.35h-45c6.49-3.29,17.49-7.79,28.07-7.35m-11.93-2.45a80.69,80.69,0,0,0-23.63,9.8H160.92V108l4.16-9.8V93.92h3.46v4.31l3.77,9.18v3.26h6.17L187.93,94v-4.9h3V94l10.56,16.31h30.71V96.59h2.62v5.34l9.62-.13V96.63l3.23-3.23V88.68H251v4.45l6,9.8,7.93-7.2h.25ZM223,106.7H203.56l-8.87-13.62V90.63H209V88.36h5.27V92ZM103,142.48a89.82,89.82,0,0,0,21.53,2.64c8.65,0,16.21,0,21.26.15h5.87a5.64,5.64,0,0,1,1.1.22l-.36.34a3.69,3.69,0,0,0-1,3.48c2.23,8.94,4.16,18.69,3.38,20.74a27.26,27.26,0,0,1-2.82,4.63c-2.69,4-6,8.89-5.85,13.55a138.32,138.32,0,0,0,2.62,15.4c2.45,11.6,5.49,27.45,4.73,35.19-2.45,23.92-8.26,33.6-8.33,33.7-.56.93-13.86,22.48-15.31,33a25.13,25.13,0,0,1-5.7,1.12h0c0-5.63,3.06-35.26,5.12-53.7a76.87,76.87,0,0,0,0-21.53c-1.23-6-6.13-9.18-10.44-11.95a21.5,21.5,0,0,1-5.9-4.75c-2.18-3.14-3.84-12.79-4.9-19.15a43.31,43.31,0,0,0-1.69-7.89,24.47,24.47,0,0,0-7-7.08c1.3-10.53,3.19-30.95,3.82-38.23m-4.33,42.44A17.45,17.45,0,0,1,103,189.2a65.3,65.3,0,0,1,1.42,7c1.3,7.35,2.91,16.78,5.53,20.57a23.93,23.93,0,0,0,6.94,5.76c3.89,2.45,7.91,5.09,8.84,9.62a74.42,74.42,0,0,1,0,20.33c-4,35.75-4.9,48.54-5.07,53.29l-32.18-7.1c0-6.83,0-35.51-.79-46.92a34.93,34.93,0,0,1,2.72-7.06c2.23-4.9,4.75-10.55,4.9-14.89.32-5.31,1.84-30.83,3.4-45m34.83,120.63c1.69-9.91,14.57-30.83,14.69-31s6.42-10.33,8.86-35.29c.81-8.25-2.27-23.78-4.9-36.24a143,143,0,0,1-2.44-14.84c-.15-3.45,2.84-7.81,5.24-11.34a29.91,29.91,0,0,0,3.2-5.39c1.35-3.5-1.22-15.43-2.6-21.28a178.82,178.82,0,0,0,18-2.87c4.19-.78,8.16-1.51,9.8-1.66,4.9-.44,19,0,19,0l24.49-3.14v5.12L217,162.46s-6.12,2.45-8.62,3.31c-3.18,1.08-3.92,1.32-4.36,2.3a1.88,1.88,0,0,0-.15.88,130.93,130.93,0,0,0-.71,20.67,56.61,56.61,0,0,0,2.45,11.88,64.36,64.36,0,0,1,2.84,14.35c.62,10.09,0,26.15,0,26.15s-6.78,7.72-13,13.4a178.78,178.78,0,0,0-17.48,18c-1,1.47-1.64,5.24-2.82,12.9-.78,5.15-1.69,11-2.84,15.85a35.64,35.64,0,0,0,.12,15l-5.09-2.45ZM176,303c1.18-4.9,2.09-10.92,2.89-16.14.35-2.25.74-4.75,1.1-6.85a54,54,0,0,1,2.72,7.49c0,1.94,3.55,10.53,5.73,15.63l4.75,8.86.81,15.36-17.14-8.16a34.48,34.48,0,0,1-.8-16.18m20.76,8-5-9.43a132.69,132.69,0,0,1-5.39-14.06,66.37,66.37,0,0,0-4.63-12.8,206.43,206.43,0,0,1,16.34-16.6c4-3.65,8.18-8.06,10.75-10.88,0,2.2-.17,3.95-.22,5.12V253c-.35,7.35,3.87,15.65,11.24,22a38.89,38.89,0,0,1,5.56,7c3.7,5.31,8.28,11.92,16.16,16.09,17.39,9.21,37.2,17.7,40.19,19L295,332.45l-31.64.61-21.2,1.79-41.25-5.07-3.18-3.7Zm55-34.29-10.46-30,8-71.49c2.45,5.32,6.1,12.25,10,14.7,6.2,4,34.49,8.66,37.67,9.18,7.57,1.37,20.47,4.9,22.87,8.52,3.48,5.22,3.31,12.93,3.14,20.4a45,45,0,0,0,.95,14c2,6.25,9.38,14.5,15.9,21.78,3.08,3.45,6,6.71,7.81,9.18,5.41,7.35,19.86,43.1,20,43.47a2.11,2.11,0,0,0,.41.61l20.55,20.3-29.27-4.51-17.14-2.27H342l-33.84,1.59-8.45.17Zm30.58-126.1,31.3,1.37-6.39,4.9-26.94,4.9-14.69,1.87-.61-10.6ZM241,147l32.86-5.09,4.9,5.54-14.69,2.08h-1.3l-1.72.24.22,2.16.69,12L253.39,165,240.88,147.3ZM212.23,215.7a67.76,67.76,0,0,0-3-15.11,53.82,53.82,0,0,1-2.45-11.14,127.5,127.5,0,0,1,.56-18.74l23.71.47h.22l14.91-1.4-8.64,77a2.21,2.21,0,0,0,0,.81l10.85,30.54c0,.2,27.82,32.6,27.82,32.6-7.91-3.5-21.06-9.52-33-15.84-7.1-3.75-11.22-9.8-14.87-15a42.35,42.35,0,0,0-6.12-7.62c-6.59-5.76-10.31-13-10-19.22v-.67a346.16,346.16,0,0,0,0-36.73m18.38-67.6V136.77h6.74v11.34a1.66,1.66,0,0,0,.32,1l11.73,16.6H249l-17.87,1.69-12.71-.54L230.28,149a1.88,1.88,0,0,0,.29-1M442.65,196.6c1.79-5.56,15.38-15.2,20.57-18.51,5.1,6.56,12.54,16.77,15.26,23.83,4.21,10.92,2.79,35.51,1.74,41.63l-15.36,52.53c-.26-.81-27.82-82.26-22.26-99.43M370.87,314.86c-1.59-4-14.86-36.46-20.3-43.91-1.91-2.62-4.9-5.95-8-9.45-6-6.66-13.4-15-15.14-20.45a43.87,43.87,0,0,1-.81-12.83c.2-7.67.4-16.36-3.72-22.53s-23.09-9.68-25.3-10.09c-8.5-1.37-31.61-5.59-36.29-8.65-4-2.6-8.55-12.51-10.65-17.8l30.29-3.67,27.38-4.9a1.71,1.71,0,0,0,.78-.37L324.68,148l39.48,3.23h.42l22.26-3.31L411,142.53h.32l7.18-3.06,30.83-7.34,8.5,39.55s1.45,1.71,3.14,3.84c-3.16,2-19.35,12.76-21.78,20.28-5.9,18.29,21.16,98.3,22.29,101.66l7,23.11s-22,3.56-22.36,3.7l-22.29,14.45-29.38-.2Zm159.77,11.69,19.4-5.47-4.36-25.61a182.75,182.75,0,0,0-8.4-28.14,39.13,39.13,0,0,0-4.19-7.84c-1.49-2.18-1.83-2.69-1.83-12.24,0-11-1.52-14.26-3.11-17.68a25.53,25.53,0,0,1-2-5.42,31.64,31.64,0,0,1-.71-11.14,19.49,19.49,0,0,0,.13-3.5l3-21.13-4-36.74-7.34-20.57a48.94,48.94,0,0,0-11.49-15.7L505.41,78H492.76v4.26h-8.3v5.58h-5.78l-3.14,6.89-28.09.26L435.2,81.13l-.1-6.27H423.5l.22,6.08-9.38,10.45v-32l3.84-5.93-1.83-4.38H403.64V33.16H388.33V29.88H375.72v3.55h-3v3.65H368v3.18h-1.66l-1.87-3.53-4.9-1.88-2.15-5.32h-8L346.5,37.2V33.45h-3.7v-4.9l-12.64-.22V45.7l-2.2.66-1.81.66-2.06,1.51-21,.47-2.87,3.21,2.26,6.1V99l-6.64-8.25V85.1h-6.69v4h-1.91v-4h-9.06v6.71l-5.29,9-5.75-8.69h-3.6l-5.68,5.17-3.17-5.17V85.05H244.11v6.81l-3.26,3.26V98.2h-2.18V92.86h-9.8V106.7h-1.56L218,91V84.66H205.27v2.45H194.54V85.69H184.23V93l-7.93,14h-.39v-.32l-3.8-9.21V90.27H161.34v7.22l-4.14,9.8v7.94a37.7,37.7,0,0,0-4.51,0A92.24,92.24,0,0,0,139.36,121c-3.2,1.57-6.49,3.19-9,4.24-1.88.78-4,1.59-6.14,2.45a176.07,176.07,0,0,0-23.83,10.9,1.85,1.85,0,0,0-.89,1.76s-2.6,30.08-4,41c-1.67,12.93-3.33,40.29-3.8,48.37A48,48,0,0,1,87,243.29c-2,4.45-3.14,7.07-3,8.79.83,12.81.76,49.59.76,49.59L121.8,310a5.2,5.2,0,0,0,2.45.49,26.59,26.59,0,0,0,7.59-1.52l34.29,9.28,31.71,15,44.09,5.39H242l21.48-1.79,35.58-.52,12.76-.44L342,334.5l16.94,2.25,34.75,5.34h30.79c.34,0,23.41-14.84,23.41-14.84l22.65-3.6,26.94,5.05Z"/></svg>